<svg width="1920" height="1691" viewBox="0 0 1920 1691" fill="none" xmlns="http://www.w3.org/2000/svg">
<path fill-rule="evenodd" clip-rule="evenodd" d="M-84.61 186.09L-19.4592 204.06C-15.5689 205.133 -11.4954 206.266 -7.24822 207.446L-7.22334 207.453C68.5515 228.518 199.619 264.953 333.172 254.695C398.685 251.259 466.943 234.159 536.236 216.799C607.175 199.027 679.199 180.983 750.472 177.052C830.403 170.913 909.443 181.499 988.484 192.085C1048.93 200.18 1109.37 208.275 1170.21 208.891C1310.61 210.312 1453.13 171.903 1587.51 131.248C1686.78 102.394 1786.13 72.0566 1862.85 48.6298L1862.85 48.6286C1896.4 38.384 1925.63 29.4611 1948.62 22.5616L2015.89 0.701998L2007.75 153.602L2008.16 153.562L1945.8 1325.54L1937.82 1326.33L1928.33 1504.79L1863.18 1486.82C1859.28 1485.74 1855.2 1484.61 1850.94 1483.42C1775.17 1462.36 1644.1 1425.92 1510.55 1436.18C1445.03 1439.62 1376.78 1456.72 1307.48 1474.08C1236.54 1491.85 1164.52 1509.89 1093.25 1513.82C1013.32 1519.96 934.276 1509.38 855.235 1498.79C794.792 1490.7 734.35 1482.6 673.509 1481.99C533.107 1480.56 390.586 1518.97 256.209 1559.63C156.938 1588.48 57.5881 1618.82 -19.1309 1642.25C-52.6819 1652.49 -81.9048 1661.41 -104.9 1668.31L-172.17 1690.17L-162.225 1503.28L-154.053 1502.47L-95.0904 394.373L-95.696 394.432L-84.61 186.09Z" fill="white"/>
</svg>
