<svg width="1920" height="1888" viewBox="0 0 1920 1888" fill="none" xmlns="http://www.w3.org/2000/svg">
<path d="M-31.1534 128.237L-97.3478 120.093L-94.5413 224.221L-93.9411 224.184L-81.5129 685.31C-95.0886 682.265 -107.651 679.347 -119.038 676.702L-119.135 676.679C-123.624 675.637 -127.931 674.636 -132.045 673.687L-201.299 657.714L-208.993 828.073L-208.354 828.036L-249.277 1734.12L-257.906 1734.62L-264.808 1887.44L-194.083 1870.84C-169.896 1865.64 -139.163 1858.9 -103.877 1851.16C-23.1884 1833.47 81.3022 1810.55 185.738 1788.85C327.075 1758.16 477.068 1729.47 625.591 1733.35C689.949 1735.03 754.031 1742.83 818.113 1750.63L818.117 1750.63C901.919 1760.82 985.72 1771.02 1070.14 1767.54C1145.45 1765.7 1221.27 1752.32 1295.96 1739.14C1368.91 1726.27 1440.77 1713.59 1509.99 1712.05C1651.04 1706.23 1790.37 1738.6 1870.92 1757.31L1870.94 1757.31C1875.46 1758.36 1879.79 1759.37 1883.93 1760.32L1953.18 1776.3L1959.77 1630.37L1968.19 1629.89L2011.47 671.571L2011.05 671.596L2016.69 546.571L2001.1 550.229L1988.36 77.3404L1987.96 77.3654L1985.9 0.947021L1920.24 12.7099C1897.76 16.4437 1869.22 21.2657 1836.44 26.8017L1836.41 26.8075C1761.43 39.4724 1664.33 55.8733 1567.21 71.533C1435.85 93.5275 1296.22 114.504 1156.05 115.574C1095.31 116.037 1034.47 112.762 973.633 109.488C894.073 105.206 814.513 100.924 735.178 105.001C664.334 107.866 593.679 117.784 524.088 127.554C456.114 137.096 389.154 146.496 324.022 149.041C191.465 155.853 58.2789 139.329 -18.7205 129.775L-18.7491 129.772C-23.0637 129.236 -27.2018 128.723 -31.1534 128.237Z" fill="white"/>
</svg>
