<svg width="639" height="656" viewBox="0 0 639 656" fill="none" xmlns="http://www.w3.org/2000/svg">
<path fill-rule="evenodd" clip-rule="evenodd" d="M524.564 232.771C569.948 280.225 647.391 324.566 636.107 389.251C624.782 454.174 525.096 453.608 477.998 499.705C431.561 545.154 430.775 646.864 366.136 653.483C300.353 660.219 274.328 564.438 220.467 526.074C178.235 495.993 121.668 492.72 86.6942 454.44C43.4965 407.16 4.83761 351.139 2.17662 287.151C-0.775189 216.17 23.2462 143.228 71.5872 91.169C120.909 38.0544 193.75 -9.11386 265.019 4.09389C335.396 17.1363 357.512 106.792 411.217 154.11C446.589 185.275 491.979 198.702 524.564 232.771Z" stroke="white" stroke-width="3"/>
</svg>
