<svg width="1031" height="869" viewBox="0 0 1031 869" fill="none" xmlns="http://www.w3.org/2000/svg">
<path fill-rule="evenodd" clip-rule="evenodd" d="M596.582 718.309C527.652 761.169 454.349 843.603 378.957 813.531C303.289 783.349 329.279 662.892 285.467 594.211C242.271 526.495 119.421 499.724 127.823 419.844C136.373 338.55 258.855 331.379 318.941 275.957C366.054 232.501 384.374 164.897 439.562 132.303C507.728 92.0449 585.316 59.4966 663.404 72.5208C750.026 86.9685 832.174 134.546 882.883 206.245C934.62 279.397 973.193 379.494 939.123 462.363C905.478 544.194 791.398 548.191 720.521 601.15C673.837 636.032 646.071 687.537 596.582 718.309Z" fill="#67ECAB"/>
<path fill-rule="evenodd" clip-rule="evenodd" d="M518.758 643.763C459.958 680.325 397.427 750.645 333.114 724.992C268.566 699.245 290.736 596.49 253.363 537.902C216.514 480.137 111.718 457.3 118.885 389.159C126.179 319.811 230.661 313.694 281.917 266.417C322.107 229.346 337.735 171.677 384.813 143.873C442.962 109.531 509.148 81.7654 575.76 92.8758C649.653 105.2 719.729 145.786 762.986 206.948C807.121 269.351 840.025 354.738 810.961 425.429C782.261 495.235 684.946 498.644 624.484 543.821C584.661 573.577 560.975 617.513 518.758 643.763Z" fill="url(#paint0_linear_120_84)"/>
<path fill-rule="evenodd" clip-rule="evenodd" d="M428.414 594.402C372.652 629.074 313.352 695.761 252.362 671.433C191.15 647.017 212.175 549.572 176.732 494.011C141.788 439.231 42.407 417.574 49.2036 352.954C56.1206 287.19 155.204 281.389 203.811 236.555C241.925 201.4 256.744 146.711 301.39 120.343C356.534 87.7758 419.3 61.4453 482.47 71.9815C552.544 83.6692 618.999 122.158 660.021 180.16C701.875 239.337 733.08 320.312 705.517 387.35C678.3 453.549 586.013 456.782 528.676 499.625C490.911 527.843 468.449 569.509 428.414 594.402Z" stroke="white" stroke-width="3"/>
<defs>
<linearGradient id="paint0_linear_120_84" x1="315.332" y1="251.124" x2="651.832" y2="560.124" gradientUnits="userSpaceOnUse">
<stop stop-color="#397F98"/>
<stop offset="1" stop-color="#49C2A0" stop-opacity="0.97"/>
</linearGradient>
</defs>
</svg>
