<svg width="162" height="54" viewBox="0 0 162 54" fill="none" xmlns="http://www.w3.org/2000/svg">
<path d="M46.2566 41.1554C46.09 41.844 45.7092 42.4627 45.1684 42.9235C44.6275 43.3843 43.9542 43.6636 43.2444 43.7216C42.5345 43.7796 41.8244 43.6134 41.2151 43.2467C40.6058 42.88 40.1285 42.3314 39.8511 41.6791C39.5737 41.0268 39.5103 40.3042 39.6702 39.614C39.83 38.9239 40.2047 38.3015 40.7411 37.8355C41.2774 37.3696 41.948 37.0838 42.6572 37.0189C43.3665 36.9541 44.0782 37.1134 44.691 37.4743C44.3102 37.5452 43.9653 37.7441 43.7143 38.0376C43.4632 38.3311 43.3212 38.7014 43.3119 39.0866C43.3026 39.4718 43.4266 39.8484 43.6632 40.1536C43.8999 40.4587 44.2347 40.6737 44.6117 40.7628C44.9285 40.8385 45.2605 40.8216 45.5679 40.7142C45.8753 40.6068 46.145 40.4134 46.3445 40.1572C46.365 40.4845 46.3376 40.8198 46.2566 41.1554Z" fill="#282828"/>
<path d="M86.8552 41.1554C86.6887 41.844 86.3079 42.4627 85.767 42.9235C85.2262 43.3843 84.5528 43.6636 83.843 43.7216C83.1332 43.7796 82.423 43.6134 81.8138 43.2467C81.2045 42.88 80.7271 42.3314 80.4497 41.6791C80.1723 41.0268 80.109 40.3042 80.2688 39.614C80.4286 38.9239 80.8034 38.3015 81.3398 37.8355C81.8761 37.3696 82.5467 37.0838 83.2559 37.0189C83.9651 36.9541 84.6769 37.1134 85.2897 37.4743C84.9088 37.5452 84.564 37.7441 84.313 38.0376C84.0619 38.3311 83.9198 38.7014 83.9106 39.0866C83.9013 39.4718 84.0253 39.8484 84.2619 40.1536C84.4985 40.4587 84.8334 40.6737 85.2104 40.7628C85.5272 40.8385 85.8592 40.8216 86.1666 40.7142C86.474 40.6068 86.7437 40.4134 86.9432 40.1572C86.9636 40.4845 86.9363 40.8198 86.8552 41.1554Z" fill="#282828"/>
<path d="M2.28706 53.8251C1.64199 53.8251 1.09955 53.6065 0.659728 53.1691C0.219909 52.7318 0 52.1924 0 51.551V21.9439C0 21.2733 0.219909 20.734 0.659728 20.3258C1.09955 19.8885 1.64199 19.6698 2.28706 19.6698H10.2478C12.7694 19.6698 15.0565 20.0926 17.109 20.9381C19.1908 21.7544 20.994 22.9352 22.5187 24.4804C24.0434 25.9965 25.2163 27.7895 26.0373 29.8595C26.8583 31.9296 27.2688 34.2182 27.2688 36.7256C27.2688 39.2329 26.8583 41.5362 26.0373 43.6354C25.2163 45.7054 24.0434 47.513 22.5187 49.0582C20.994 50.5743 19.1908 51.7551 17.109 52.6006C15.0565 53.417 12.7694 53.8251 10.2478 53.8251H2.28706ZM4.57412 49.8017H10.2478C12.7108 49.8017 14.8805 49.2478 16.7571 48.1399C18.663 47.0028 20.1584 45.4576 21.2432 43.5042C22.3281 41.5216 22.8706 39.2621 22.8706 36.7256C22.8706 34.1599 22.3281 31.9004 21.2432 29.947C20.1584 27.9936 18.663 26.463 16.7571 25.3551C14.8805 24.2472 12.7108 23.6932 10.2478 23.6932H4.57412V49.8017Z" fill="#282828"/>
<path d="M40.7362 54.0001C38.5957 54.0001 36.6752 53.4753 34.9745 52.4257C33.2739 51.3469 31.9251 49.9037 30.9282 48.0961C29.9606 46.2593 29.4768 44.1893 29.4768 41.8861C29.4768 39.5828 30.0046 37.5128 31.0601 35.676C32.145 33.8392 33.5964 32.396 35.4143 31.3465C37.2616 30.2677 39.3287 29.7283 41.6158 29.7283C43.9029 29.7283 45.9553 30.2677 47.7733 31.3465C49.5912 32.396 51.0279 33.8392 52.0835 35.676C53.1684 37.5128 53.7108 39.5828 53.7108 41.8861H51.9955C51.9955 44.1893 51.4971 46.2593 50.5001 48.0961C49.5325 49.9037 48.1984 51.3469 46.4978 52.4257C44.7972 53.4753 42.8766 54.0001 40.7362 54.0001ZM41.6158 50.0641C43.1112 50.0641 44.4453 49.7142 45.6181 49.0145C46.791 48.2856 47.7146 47.3089 48.389 46.0844C49.0634 44.8307 49.4006 43.4313 49.4006 41.8861C49.4006 40.3117 49.0634 38.9122 48.389 37.6877C47.7146 36.434 46.791 35.4573 45.6181 34.7576C44.4453 34.0287 43.1112 33.6643 41.6158 33.6643C40.1497 33.6643 38.8156 34.0287 37.6134 34.7576C36.4406 35.4573 35.5023 36.434 34.7986 37.6877C34.1242 38.9122 33.787 40.3117 33.787 41.8861C33.787 43.4313 34.1242 44.8307 34.7986 46.0844C35.5023 47.3089 36.4406 48.2856 37.6134 49.0145C38.8156 49.7142 40.1497 50.0641 41.6158 50.0641ZM51.4677 53.8689C50.8227 53.8689 50.2802 53.6648 49.8404 53.2566C49.4299 52.8193 49.2247 52.2799 49.2247 51.6385V44.9474L50.0603 40.3117L53.7108 41.8861V51.6385C53.7108 52.2799 53.4909 52.8193 53.0511 53.2566C52.6406 53.6648 52.1128 53.8689 51.4677 53.8689Z" fill="#282828"/>
<path d="M65.8412 53.8251C64.3752 53.8251 63.0557 53.4607 61.8829 52.7318C60.71 51.9738 59.7864 50.9533 59.112 49.6705C58.4376 48.3877 58.1004 46.9445 58.1004 45.341V24.4804C58.1004 23.839 58.3057 23.3142 58.7162 22.906C59.1267 22.4979 59.6544 22.2938 60.2995 22.2938C60.9446 22.2938 61.4724 22.4979 61.8829 22.906C62.2934 23.3142 62.4986 23.839 62.4986 24.4804V45.341C62.4986 46.5072 62.8211 47.4839 63.4662 48.2711C64.1113 49.0582 64.9029 49.4518 65.8412 49.4518H67.3366C67.8644 49.4518 68.3042 49.6559 68.6561 50.0641C69.0372 50.4723 69.2278 50.9971 69.2278 51.6385C69.2278 52.2799 68.9786 52.8047 68.4801 53.2129C68.011 53.621 67.3952 53.8251 66.6329 53.8251H65.8412ZM56.0772 34.539C55.4615 34.539 54.963 34.364 54.5819 34.0142C54.2007 33.6643 54.0101 33.227 54.0101 32.7022C54.0101 32.1191 54.2007 31.6526 54.5819 31.3027C54.963 30.9529 55.4615 30.7779 56.0772 30.7779H66.2371C66.8528 30.7779 67.3513 30.9529 67.7324 31.3027C68.1136 31.6526 68.3042 32.1191 68.3042 32.7022C68.3042 33.227 68.1136 33.6643 67.7324 34.0142C67.3513 34.364 66.8528 34.539 66.2371 34.539H56.0772Z" fill="#282828"/>
<path d="M81.4709 54.0001C79.3305 54.0001 77.41 53.4753 75.7093 52.4257C74.0087 51.3469 72.6599 49.9037 71.663 48.0961C70.6954 46.2593 70.2116 44.1893 70.2116 41.8861C70.2116 39.5828 70.7394 37.5128 71.7949 35.676C72.8798 33.8392 74.3312 32.396 76.1491 31.3465C77.9964 30.2677 80.0635 29.7283 82.3506 29.7283C84.6376 29.7283 86.6901 30.2677 88.508 31.3465C90.326 32.396 91.7627 33.8392 92.8183 35.676C93.9032 37.5128 94.4456 39.5828 94.4456 41.8861H92.7303C92.7303 44.1893 92.2318 46.2593 91.2349 48.0961C90.2673 49.9037 88.9332 51.3469 87.2326 52.4257C85.5319 53.4753 83.6114 54.0001 81.4709 54.0001ZM82.3506 50.0641C83.846 50.0641 85.1801 49.7142 86.3529 49.0145C87.5258 48.2856 88.4494 47.3089 89.1238 46.0844C89.7982 44.8307 90.1354 43.4313 90.1354 41.8861C90.1354 40.3117 89.7982 38.9122 89.1238 37.6877C88.4494 36.434 87.5258 35.4573 86.3529 34.7576C85.1801 34.0287 83.846 33.6643 82.3506 33.6643C80.8845 33.6643 79.5504 34.0287 78.3482 34.7576C77.1754 35.4573 76.2371 36.434 75.5334 37.6877C74.859 38.9122 74.5218 40.3117 74.5218 41.8861C74.5218 43.4313 74.859 44.8307 75.5334 46.0844C76.2371 47.3089 77.1754 48.2856 78.3482 49.0145C79.5504 49.7142 80.8845 50.0641 82.3506 50.0641ZM92.2025 53.8689C91.5575 53.8689 91.015 53.6648 90.5752 53.2566C90.1647 52.8193 89.9594 52.2799 89.9594 51.6385V44.9474L90.7951 40.3117L94.4456 41.8861V51.6385C94.4456 52.2799 94.2257 52.8193 93.7859 53.2566C93.3754 53.6648 92.8476 53.8689 92.2025 53.8689Z" fill="#282828"/>
<g filter="url(#filter0_d_2_2620)">
<path d="M113.804 10.3983C113.947 11.0535 113.912 11.5758 113.698 11.9652C113.506 12.3499 113.103 12.6088 112.488 12.7419C112.544 13.2101 112.62 14.0286 112.715 15.1976C112.83 16.774 112.896 17.6519 112.912 17.8313C114.128 32.7345 111.639 40.8565 105.445 42.1974C103.622 42.592 102.082 42.3879 100.824 41.5849C99.5894 40.7771 98.802 39.5979 98.4625 38.0473C97.8552 35.2736 98.5057 32.5707 100.414 29.9387C102.318 27.2849 105.049 24.8406 108.609 22.606C108.511 21.003 108.394 19.5758 108.258 18.3242L107.768 13.2491C106.421 13.4033 105.177 13.6041 104.035 13.8513C100.982 14.5123 98.795 15.2945 97.4744 16.198C96.1539 17.1015 95.6395 18.2194 95.9312 19.5516C96.0746 20.2068 96.4497 20.8691 97.0563 21.5384C97.2359 21.7282 97.352 21.9433 97.4047 22.1835C97.5051 22.6422 97.3543 23.1094 96.9524 23.5853C96.5677 24.0346 96.1007 24.3187 95.5516 24.4376C94.8488 24.5897 94.2461 24.4114 93.7436 23.9025C92.9086 23.031 92.3453 21.9292 92.0535 20.5969C90.9059 15.3553 94.9446 11.736 104.17 9.7389C106.849 9.1588 109.301 8.9026 111.524 8.97029C112.843 9.00502 113.603 9.48103 113.804 10.3983ZM105.105 38.5993C106.182 38.3663 107.081 37.3253 107.803 35.4761C108.526 33.627 108.851 30.5942 108.779 26.3779C103.931 29.875 101.878 33.3161 102.619 36.7013C102.782 37.4439 103.084 37.9846 103.527 38.3235C103.964 38.6405 104.49 38.7325 105.105 38.5993Z" fill="url(#paint0_linear_2_2620)"/>
<path d="M122.067 35.099C120.705 35.3938 119.511 35.1378 118.483 34.3309C117.455 33.524 116.766 32.3234 116.417 30.7291C116.035 28.9819 116.08 27.245 116.553 25.5184C117.022 23.77 117.823 22.2812 118.957 21.052C120.108 19.7963 121.442 19.0044 122.957 18.6763C123.441 18.5717 123.781 18.601 123.977 18.7643C124.191 18.9009 124.406 19.1976 124.621 19.6544C125.063 19.4671 125.537 19.3188 126.042 19.2095C127.118 18.9765 127.74 19.2422 127.907 20.0066C128.008 20.4652 128.082 21.5929 128.13 23.3896C128.175 26.0106 128.305 27.8124 128.52 28.7952C128.592 29.1229 128.726 29.3683 128.923 29.5316C129.142 29.6901 129.383 29.7408 129.647 29.6838C130.064 29.5934 130.512 29.222 130.99 28.5694C131.463 27.895 132.074 26.8479 132.821 25.428C133.018 25.0651 133.281 24.8481 133.61 24.7767C133.896 24.7149 134.144 24.7984 134.355 25.0272C134.588 25.2513 134.755 25.5926 134.856 26.0512C135.047 26.9248 134.987 27.6471 134.674 28.2179C134.018 29.5267 133.268 30.6726 132.425 31.6558C131.582 32.6389 130.688 33.2327 129.744 33.4371C129.019 33.5941 128.296 33.4988 127.576 33.1515C126.873 32.7776 126.275 32.198 125.781 31.4128C125.04 33.4946 123.802 34.7233 122.067 35.099ZM122.529 31.5335C123.012 31.4288 123.411 31.0451 123.726 30.3821C124.041 29.7192 124.194 28.8968 124.187 27.9148L124.086 21.6231C123.168 21.8446 122.388 22.3795 121.745 23.2277C121.12 24.0494 120.696 25.0561 120.474 26.248C120.252 27.4398 120.275 28.6473 120.543 29.8703C120.691 30.5474 120.933 31.0211 121.268 31.2917C121.625 31.5575 122.046 31.6381 122.529 31.5335Z" fill="url(#paint1_linear_2_2620)"/>
<path d="M135.83 32.1196C134.995 32.3003 134.307 31.9919 133.764 31.1944C133.243 30.3921 132.772 29.03 132.351 27.108C131.73 24.2688 131.546 21.4836 131.799 18.7524C131.858 18.0763 132.076 17.5487 132.453 17.1697C132.847 16.764 133.451 16.4733 134.263 16.2973C134.703 16.2022 135.022 16.1903 135.222 16.2614C135.421 16.3326 135.555 16.5211 135.622 16.8268C135.698 17.1763 135.706 17.9982 135.644 19.2925C135.616 20.2137 135.607 21.0161 135.619 21.6998C135.626 22.3617 135.69 23.1827 135.813 24.1627C136.033 22.3307 136.42 20.7371 136.975 19.3819C137.551 18.0218 138.206 16.9651 138.938 16.2119C139.687 15.432 140.446 14.9588 141.215 14.7924C141.984 14.626 142.56 14.6842 142.944 14.9671C143.35 15.2452 143.632 15.7446 143.79 16.4653C143.943 17.1642 144.012 18.4761 143.996 20.401C143.993 21.2253 144.001 21.8411 144.021 22.2485C144.344 20.257 144.818 18.5874 145.443 17.2397C146.091 15.8873 146.79 14.8781 147.541 14.2121C148.288 13.5244 149.024 13.102 149.748 12.9451C150.451 12.793 151.019 12.8645 151.452 13.1597C151.902 13.4283 152.203 13.912 152.356 14.6109C152.48 15.1788 152.594 16.2751 152.697 17.8999C152.769 19.2797 152.87 20.5844 153.002 21.8142C153.128 23.022 153.351 24.3576 153.672 25.8209C153.854 26.6508 153.809 27.2895 153.539 27.7368C153.286 28.1576 152.775 28.4512 152.007 28.6176C151.282 28.7745 150.714 28.703 150.303 28.403C149.893 28.1031 149.606 27.5818 149.443 26.8393C149.252 25.9657 149.09 24.4909 148.958 22.4151C148.839 20.6108 148.727 19.4685 148.621 18.988C148.545 18.6385 148.386 18.49 148.144 18.5423C147.859 18.6041 147.534 19.0633 147.169 19.92C146.8 20.7548 146.483 21.8299 146.219 23.1452C145.955 24.4606 145.804 25.82 145.766 27.2236C145.754 28.3242 145.621 29.0849 145.368 29.5057C145.137 29.9217 144.671 30.2058 143.968 30.3579C143.243 30.5148 142.62 30.2952 142.098 29.699C141.594 29.0762 141.234 28.2734 141.019 27.2906C140.837 26.4606 140.684 25.2357 140.559 23.6156C140.429 22.1798 140.316 21.2435 140.22 20.8067C140.143 20.4573 139.984 20.3087 139.743 20.361C139.413 20.4323 139.082 20.9158 138.749 21.8114C138.416 22.707 138.142 23.8186 137.926 25.1463C137.733 26.4692 137.623 27.7512 137.595 28.9924C137.578 30.0712 137.446 30.8319 137.198 31.2745C136.967 31.6905 136.511 31.9722 135.83 32.1196Z" fill="url(#paint2_linear_2_2620)"/>
</g>
<defs>
<filter id="filter0_d_2_2620" x="91.8631" y="8.95972" width="69.9184" height="41.4327" filterUnits="userSpaceOnUse" color-interpolation-filters="sRGB">
<feFlood flood-opacity="0" result="BackgroundImageFix"/>
<feColorMatrix in="SourceAlpha" type="matrix" values="0 0 0 0 0 0 0 0 0 0 0 0 0 0 0 0 0 0 127 0" result="hardAlpha"/>
<feOffset dx="4" dy="4"/>
<feGaussianBlur stdDeviation="2"/>
<feComposite in2="hardAlpha" operator="out"/>
<feColorMatrix type="matrix" values="0 0 0 0 1 0 0 0 0 0.631373 0 0 0 0 0.478431 0 0 0 0.4 0"/>
<feBlend mode="normal" in2="BackgroundImageFix" result="effect1_dropShadow_2_2620"/>
<feBlend mode="normal" in="SourceGraphic" in2="effect1_dropShadow_2_2620" result="shape"/>
</filter>
<linearGradient id="paint0_linear_2_2620" x1="90.332" y1="12.7345" x2="153.266" y2="5.93733" gradientUnits="userSpaceOnUse">
<stop stop-color="#FB59A0"/>
<stop offset="1" stop-color="#FD8402"/>
</linearGradient>
<linearGradient id="paint1_linear_2_2620" x1="90.332" y1="12.7345" x2="153.266" y2="5.93733" gradientUnits="userSpaceOnUse">
<stop stop-color="#FB59A0"/>
<stop offset="1" stop-color="#FD8402"/>
</linearGradient>
<linearGradient id="paint2_linear_2_2620" x1="90.332" y1="12.7345" x2="153.266" y2="5.93733" gradientUnits="userSpaceOnUse">
<stop stop-color="#FB59A0"/>
<stop offset="1" stop-color="#FD8402"/>
</linearGradient>
</defs>
</svg>
